<svg xmlns="http://www.w3.org/2000/svg" width="121" height="121" viewBox="0 0 121 121" fill="none">
                    <circle cx="60.5" cy="60.5" r="60.5" fill="url(#paint0_linear_14_41)" fill-opacity="0.7" />
                    <g filter="url(#filter0_i_14_41)">
                        <path
                            d="M96.8711 54.9167C96.8711 70.3657 84.0665 87.074 71.7285 96.5164C68.2543 99.1752 64.761 91.9074 60.3861 91.9074C40.236 91.9074 23.9011 75.3461 23.9011 54.9167C23.9011 34.4872 40.236 17.9259 60.3861 17.9259C80.5362 17.9259 96.8711 34.4872 96.8711 54.9167Z"
                            fill="url(#paint1_linear_14_41)" />
                        <path
                            d="M96.8711 54.9167C96.8711 70.3657 84.0665 87.074 71.7285 96.5164C68.2543 99.1752 64.761 91.9074 60.3861 91.9074C40.236 91.9074 23.9011 75.3461 23.9011 54.9167C23.9011 34.4872 40.236 17.9259 60.3861 17.9259C80.5362 17.9259 96.8711 34.4872 96.8711 54.9167Z"
                            fill="url(#paint2_radial_14_41)" fill-opacity="0.8" />
                        <path
                            d="M96.8711 54.9167C96.8711 70.3657 84.0665 87.074 71.7285 96.5164C68.2543 99.1752 64.761 91.9074 60.3861 91.9074C40.236 91.9074 23.9011 75.3461 23.9011 54.9167C23.9011 34.4872 40.236 17.9259 60.3861 17.9259C80.5362 17.9259 96.8711 34.4872 96.8711 54.9167Z"
                            fill="url(#paint3_radial_14_41)" fill-opacity="0.8" />
                        <path
                            d="M96.8711 54.9167C96.8711 70.3657 84.0665 87.074 71.7285 96.5164C68.2543 99.1752 64.761 91.9074 60.3861 91.9074C40.236 91.9074 23.9011 75.3461 23.9011 54.9167C23.9011 34.4872 40.236 17.9259 60.3861 17.9259C80.5362 17.9259 96.8711 34.4872 96.8711 54.9167Z"
                            fill="url(#paint4_radial_14_41)" fill-opacity="0.8" />
                        <path
                            d="M96.8711 54.9167C96.8711 70.3657 84.0665 87.074 71.7285 96.5164C68.2543 99.1752 64.761 91.9074 60.3861 91.9074C40.236 91.9074 23.9011 75.3461 23.9011 54.9167C23.9011 34.4872 40.236 17.9259 60.3861 17.9259C80.5362 17.9259 96.8711 34.4872 96.8711 54.9167Z"
                            fill="url(#paint5_linear_14_41)" />
                        <path
                            d="M96.8711 54.9167C96.8711 70.3657 84.0665 87.074 71.7285 96.5164C68.2543 99.1752 64.761 91.9074 60.3861 91.9074C40.236 91.9074 23.9011 75.3461 23.9011 54.9167C23.9011 34.4872 40.236 17.9259 60.3861 17.9259C80.5362 17.9259 96.8711 34.4872 96.8711 54.9167Z"
                            fill="url(#paint6_radial_14_41)" fill-opacity="0.8" />
                        <path
                            d="M96.8711 54.9167C96.8711 70.3657 84.0665 87.074 71.7285 96.5164C68.2543 99.1752 64.761 91.9074 60.3861 91.9074C40.236 91.9074 23.9011 75.3461 23.9011 54.9167C23.9011 34.4872 40.236 17.9259 60.3861 17.9259C80.5362 17.9259 96.8711 34.4872 96.8711 54.9167Z"
                            fill="url(#paint7_radial_14_41)" fill-opacity="0.8" />
                        <path
                            d="M96.8711 54.9167C96.8711 70.3657 84.0665 87.074 71.7285 96.5164C68.2543 99.1752 64.761 91.9074 60.3861 91.9074C40.236 91.9074 23.9011 75.3461 23.9011 54.9167C23.9011 34.4872 40.236 17.9259 60.3861 17.9259C80.5362 17.9259 96.8711 34.4872 96.8711 54.9167Z"
                            fill="url(#paint8_radial_14_41)" fill-opacity="0.8" />
                    </g>
                    <path
                        d="M54.4055 41.0131C54.5624 41.0132 54.7176 41.0447 54.8625 41.1059C55.0077 41.1672 55.1401 41.2572 55.2512 41.3705C55.3621 41.4837 55.4499 41.6182 55.51 41.7661C55.5701 41.914 55.6008 42.0728 55.6008 42.2328V70.2973C55.6007 70.6207 55.4754 70.9309 55.2512 71.1596C55.027 71.3883 54.7226 71.5169 54.4055 71.517C54.0883 71.517 53.7832 71.3884 53.5588 71.1596C53.3347 70.9309 53.2094 70.6206 53.2092 70.2973V42.2328C53.2093 42.0728 53.24 41.914 53.3 41.7661C53.3601 41.6182 53.4479 41.4837 53.5588 41.3705C53.6699 41.2572 53.8024 41.1672 53.9475 41.1059C54.0926 41.0447 54.2485 41.0131 54.4055 41.0131ZM49.6204 46.5161C49.7774 46.5161 49.9333 46.5469 50.0784 46.6078C50.2234 46.6689 50.355 46.7588 50.4661 46.8715C50.5771 46.9842 50.6657 47.1178 50.7258 47.2651C50.7859 47.4123 50.8166 47.5705 50.8167 47.7299V64.8002C50.8166 65.1222 50.6903 65.431 50.4661 65.6586C50.2418 65.8863 49.9375 66.014 49.6204 66.0141C49.3032 66.0141 48.999 65.8863 48.7747 65.6586C48.5504 65.431 48.4242 65.1222 48.4241 64.8002V47.7299C48.4241 47.5705 48.4548 47.4123 48.5149 47.2651C48.575 47.1178 48.6637 46.9842 48.7747 46.8715C48.8857 46.7588 49.0173 46.6688 49.1624 46.6078C49.3075 46.5469 49.4633 46.516 49.6204 46.5161ZM59.1897 46.5161C59.3467 46.516 59.5026 46.5469 59.6477 46.6078C59.7928 46.6689 59.9253 46.7587 60.0364 46.8715C60.1472 46.9842 60.2351 47.118 60.2952 47.2651C60.3552 47.4123 60.386 47.5705 60.386 47.7299V64.8002C60.3859 65.1222 60.2597 65.431 60.0354 65.6586C59.8111 65.8862 59.5069 66.0141 59.1897 66.0141C58.8725 66.014 58.5683 65.8863 58.344 65.6586C58.1198 65.431 57.9935 65.1222 57.9934 64.8002V47.7299C57.9934 47.5705 58.0251 47.4123 58.0852 47.2651C58.1453 47.1179 58.2331 46.9842 58.344 46.8715C58.455 46.7588 58.5867 46.6689 58.7317 46.6078C58.8767 46.5469 59.0327 46.5161 59.1897 46.5161ZM68.76 46.5161C68.917 46.5161 69.0729 46.5469 69.218 46.6078C69.3631 46.6689 69.4947 46.7588 69.6057 46.8715C69.7167 46.9842 69.8054 47.1178 69.8655 47.2651C69.9255 47.4123 69.9563 47.5705 69.9563 47.7299V64.8002C69.9562 65.1222 69.83 65.431 69.6057 65.6586C69.3814 65.8863 69.0772 66.014 68.76 66.0141C68.4428 66.0141 68.1386 65.8863 67.9143 65.6586C67.6901 65.431 67.5638 65.1222 67.5637 64.8002V47.7299C67.5637 47.5705 67.5945 47.4123 67.6545 47.2651C67.7146 47.1178 67.8033 46.9842 67.9143 46.8715C68.0254 46.7588 68.1569 46.6688 68.302 46.6078C68.4471 46.5469 68.603 46.516 68.76 46.5161ZM44.8352 51.1811C44.9923 51.1811 45.1481 51.212 45.2932 51.2729C45.4382 51.3337 45.5699 51.4232 45.6809 51.5356C45.792 51.6481 45.8806 51.7821 45.9407 51.9291C46.0008 52.0762 46.0315 52.2339 46.0315 52.393V60.1371C46.0315 60.2963 46.0008 60.454 45.9407 60.601C45.8806 60.748 45.7919 60.8811 45.6809 60.9936C45.5699 61.1061 45.4382 61.1954 45.2932 61.2563C45.1481 61.3172 44.9923 61.3491 44.8352 61.3491C44.6781 61.3491 44.5223 61.3172 44.3772 61.2563C44.2322 61.1954 44.1005 61.106 43.9895 60.9936C43.8785 60.8811 43.7898 60.748 43.7297 60.601C43.6696 60.454 43.6389 60.2963 43.6389 60.1371V52.393C43.6389 52.2339 43.6696 52.0762 43.7297 51.9291C43.7898 51.7821 43.8784 51.6481 43.9895 51.5356C44.1005 51.4232 44.2322 51.3337 44.3772 51.2729C44.5223 51.212 44.6781 51.1811 44.8352 51.1811ZM63.9749 51.1811C64.1319 51.1811 64.2877 51.212 64.4329 51.2729C64.5779 51.3337 64.7095 51.4232 64.8206 51.5356C64.9316 51.6481 65.0202 51.7821 65.0803 51.9291C65.1404 52.0762 65.1712 52.2339 65.1711 52.393V60.1371C65.1711 60.4585 65.0448 60.7663 64.8206 60.9936C64.5962 61.2209 64.2921 61.3491 63.9749 61.3491C63.6576 61.349 63.3535 61.2209 63.1292 60.9936C62.905 60.7663 62.7786 60.4585 62.7786 60.1371V52.393C62.7786 52.2339 62.8093 52.0762 62.8694 51.9291C62.9295 51.7821 63.0181 51.6481 63.1292 51.5356C63.2402 51.4232 63.3719 51.3337 63.5168 51.2729C63.662 51.212 63.8178 51.1811 63.9749 51.1811ZM73.5452 51.1811C73.702 51.1811 73.8573 51.2122 74.0022 51.2729C74.1473 51.3338 74.2798 51.4231 74.3909 51.5356C74.5019 51.6481 74.5896 51.7822 74.6497 51.9291C74.7097 52.0762 74.7405 52.2339 74.7405 52.393V60.1371C74.7404 60.4584 74.6149 60.7664 74.3909 60.9936C74.1666 61.2208 73.8623 61.3489 73.5452 61.3491C73.2279 61.3491 72.9228 61.2209 72.6985 60.9936C72.4744 60.7664 72.3489 60.4583 72.3489 60.1371V52.393C72.3489 52.2339 72.3796 52.0762 72.4397 51.9291C72.4998 51.7821 72.5874 51.6481 72.6985 51.5356C72.8096 51.4231 72.942 51.3338 73.0872 51.2729C73.2322 51.2121 73.3882 51.1811 73.5452 51.1811Z"
                        fill="#F9F8FD" />
                    <path
                        d="M54.4055 41.0131C54.5624 41.0132 54.7176 41.0447 54.8625 41.1059C55.0077 41.1672 55.1401 41.2572 55.2512 41.3705C55.3621 41.4837 55.4499 41.6182 55.51 41.7661C55.5701 41.914 55.6008 42.0728 55.6008 42.2328V70.2973C55.6007 70.6207 55.4754 70.9309 55.2512 71.1596C55.027 71.3883 54.7226 71.5169 54.4055 71.517C54.0883 71.517 53.7832 71.3884 53.5588 71.1596C53.3347 70.9309 53.2094 70.6206 53.2092 70.2973V42.2328C53.2093 42.0728 53.24 41.914 53.3 41.7661C53.3601 41.6182 53.4479 41.4837 53.5588 41.3705C53.6699 41.2572 53.8024 41.1672 53.9475 41.1059C54.0926 41.0447 54.2485 41.0131 54.4055 41.0131ZM49.6204 46.5161C49.7774 46.5161 49.9333 46.5469 50.0784 46.6078C50.2234 46.6689 50.355 46.7588 50.4661 46.8715C50.5771 46.9842 50.6657 47.1178 50.7258 47.2651C50.7859 47.4123 50.8166 47.5705 50.8167 47.7299V64.8002C50.8166 65.1222 50.6903 65.431 50.4661 65.6586C50.2418 65.8863 49.9375 66.014 49.6204 66.0141C49.3032 66.0141 48.999 65.8863 48.7747 65.6586C48.5504 65.431 48.4242 65.1222 48.4241 64.8002V47.7299C48.4241 47.5705 48.4548 47.4123 48.5149 47.2651C48.575 47.1178 48.6637 46.9842 48.7747 46.8715C48.8857 46.7588 49.0173 46.6688 49.1624 46.6078C49.3075 46.5469 49.4633 46.516 49.6204 46.5161ZM59.1897 46.5161C59.3467 46.516 59.5026 46.5469 59.6477 46.6078C59.7928 46.6689 59.9253 46.7587 60.0364 46.8715C60.1472 46.9842 60.2351 47.118 60.2952 47.2651C60.3552 47.4123 60.386 47.5705 60.386 47.7299V64.8002C60.3859 65.1222 60.2597 65.431 60.0354 65.6586C59.8111 65.8862 59.5069 66.0141 59.1897 66.0141C58.8725 66.014 58.5683 65.8863 58.344 65.6586C58.1198 65.431 57.9935 65.1222 57.9934 64.8002V47.7299C57.9934 47.5705 58.0251 47.4123 58.0852 47.2651C58.1453 47.1179 58.2331 46.9842 58.344 46.8715C58.455 46.7588 58.5867 46.6689 58.7317 46.6078C58.8767 46.5469 59.0327 46.5161 59.1897 46.5161ZM68.76 46.5161C68.917 46.5161 69.0729 46.5469 69.218 46.6078C69.3631 46.6689 69.4947 46.7588 69.6057 46.8715C69.7167 46.9842 69.8054 47.1178 69.8655 47.2651C69.9255 47.4123 69.9563 47.5705 69.9563 47.7299V64.8002C69.9562 65.1222 69.83 65.431 69.6057 65.6586C69.3814 65.8863 69.0772 66.014 68.76 66.0141C68.4428 66.0141 68.1386 65.8863 67.9143 65.6586C67.6901 65.431 67.5638 65.1222 67.5637 64.8002V47.7299C67.5637 47.5705 67.5945 47.4123 67.6545 47.2651C67.7146 47.1178 67.8033 46.9842 67.9143 46.8715C68.0254 46.7588 68.1569 46.6688 68.302 46.6078C68.4471 46.5469 68.603 46.516 68.76 46.5161ZM44.8352 51.1811C44.9923 51.1811 45.1481 51.212 45.2932 51.2729C45.4382 51.3337 45.5699 51.4232 45.6809 51.5356C45.792 51.6481 45.8806 51.7821 45.9407 51.9291C46.0008 52.0762 46.0315 52.2339 46.0315 52.393V60.1371C46.0315 60.2963 46.0008 60.454 45.9407 60.601C45.8806 60.748 45.7919 60.8811 45.6809 60.9936C45.5699 61.1061 45.4382 61.1954 45.2932 61.2563C45.1481 61.3172 44.9923 61.3491 44.8352 61.3491C44.6781 61.3491 44.5223 61.3172 44.3772 61.2563C44.2322 61.1954 44.1005 61.106 43.9895 60.9936C43.8785 60.8811 43.7898 60.748 43.7297 60.601C43.6696 60.454 43.6389 60.2963 43.6389 60.1371V52.393C43.6389 52.2339 43.6696 52.0762 43.7297 51.9291C43.7898 51.7821 43.8784 51.6481 43.9895 51.5356C44.1005 51.4232 44.2322 51.3337 44.3772 51.2729C44.5223 51.212 44.6781 51.1811 44.8352 51.1811ZM63.9749 51.1811C64.1319 51.1811 64.2877 51.212 64.4329 51.2729C64.5779 51.3337 64.7095 51.4232 64.8206 51.5356C64.9316 51.6481 65.0202 51.7821 65.0803 51.9291C65.1404 52.0762 65.1712 52.2339 65.1711 52.393V60.1371C65.1711 60.4585 65.0448 60.7663 64.8206 60.9936C64.5962 61.2209 64.2921 61.3491 63.9749 61.3491C63.6576 61.349 63.3535 61.2209 63.1292 60.9936C62.905 60.7663 62.7786 60.4585 62.7786 60.1371V52.393C62.7786 52.2339 62.8093 52.0762 62.8694 51.9291C62.9295 51.7821 63.0181 51.6481 63.1292 51.5356C63.2402 51.4232 63.3719 51.3337 63.5168 51.2729C63.662 51.212 63.8178 51.1811 63.9749 51.1811ZM73.5452 51.1811C73.702 51.1811 73.8573 51.2122 74.0022 51.2729C74.1473 51.3338 74.2798 51.4231 74.3909 51.5356C74.5019 51.6481 74.5896 51.7822 74.6497 51.9291C74.7097 52.0762 74.7405 52.2339 74.7405 52.393V60.1371C74.7404 60.4584 74.6149 60.7664 74.3909 60.9936C74.1666 61.2208 73.8623 61.3489 73.5452 61.3491C73.2279 61.3491 72.9228 61.2209 72.6985 60.9936C72.4744 60.7664 72.3489 60.4583 72.3489 60.1371V52.393C72.3489 52.2339 72.3796 52.0762 72.4397 51.9291C72.4998 51.7821 72.5874 51.6481 72.6985 51.5356C72.8096 51.4231 72.942 51.3338 73.0872 51.2729C73.2322 51.2121 73.3882 51.1811 73.5452 51.1811Z"
                        fill="url(#paint9_linear_14_41)" />
                    <defs>
                        <filter id="filter0_i_14_41" x="-9.45393" y="17.9259" width="106.325" height="79.1754"
                            filterUnits="userSpaceOnUse" color-interpolation-filters="sRGB">
                            <feFlood flood-opacity="0" result="BackgroundImageFix" />
                            <feBlend mode="normal" in="SourceGraphic" in2="BackgroundImageFix" result="shape" />
                            <feColorMatrix in="SourceAlpha" type="matrix"
                                values="0 0 0 0 0 0 0 0 0 0 0 0 0 0 0 0 0 0 127 0" result="hardAlpha" />
                            <feOffset dx="-33.355" />
                            <feGaussianBlur stdDeviation="33.355" />
                            <feComposite in2="hardAlpha" operator="arithmetic" k2="-1" k3="1" />
                            <feColorMatrix type="matrix"
                                values="0 0 0 0 0.80575 0 0 0 0 0.7375 0 0 0 0 1 0 0 0 0.3 0" />
                            <feBlend mode="normal" in2="shape" result="effect1_innerShadow_14_41" />
                        </filter>
                        <linearGradient id="paint0_linear_14_41" x1="0" y1="60.5" x2="121" y2="60.5"
                            gradientUnits="userSpaceOnUse">
                            <stop stop-color="#E6DFFA" />
                            <stop offset="1" stop-color="#F6E3FF" />
                        </linearGradient>
                        <linearGradient id="paint1_linear_14_41" x1="96.8711" y1="8.97672" x2="15.3376" y2="98.1944"
                            gradientUnits="userSpaceOnUse">
                            <stop stop-color="#7041EE" />
                            <stop offset="0.527788" stop-color="#8D41EE" />
                            <stop offset="0.581731" stop-color="#9541EE" />
                            <stop offset="1" stop-color="#D641EE" />
                        </linearGradient>
                        <radialGradient id="paint2_radial_14_41" cx="0" cy="0" r="1" gradientUnits="userSpaceOnUse"
                            gradientTransform="translate(43.6896 -0.589639) rotate(95.2815) scale(104.129 149.165)">
                            <stop stop-color="#52B6FF" />
                            <stop offset="1" stop-color="#8F41EE" stop-opacity="0" />
                        </radialGradient>
                        <radialGradient id="paint3_radial_14_41" cx="0" cy="0" r="1" gradientUnits="userSpaceOnUse"
                            gradientTransform="translate(43.3804 22.8634) rotate(65.6913) scale(41.3108 107.825)">
                            <stop stop-color="#9DD6FF" />
                            <stop offset="1" stop-color="#8F41EE" stop-opacity="0" />
                        </radialGradient>
                        <radialGradient id="paint4_radial_14_41" cx="0" cy="0" r="1" gradientUnits="userSpaceOnUse"
                            gradientTransform="translate(131.501 83.0389) rotate(140.041) scale(65.3477 93.3994)">
                            <stop stop-color="#5263FF" />
                            <stop offset="1" stop-color="#8F41EE" stop-opacity="0" />
                        </radialGradient>
                        <linearGradient id="paint5_linear_14_41" x1="96.8711" y1="8.97672" x2="15.3376" y2="98.1944"
                            gradientUnits="userSpaceOnUse">
                            <stop stop-color="#7041EE" />
                            <stop offset="0.527788" stop-color="#8D41EE" />
                            <stop offset="0.581731" stop-color="#9541EE" />
                            <stop offset="1" stop-color="#D641EE" />
                        </linearGradient>
                        <radialGradient id="paint6_radial_14_41" cx="0" cy="0" r="1" gradientUnits="userSpaceOnUse"
                            gradientTransform="translate(43.6896 -0.589639) rotate(95.2815) scale(104.129 149.165)">
                            <stop stop-color="#52B6FF" />
                            <stop offset="1" stop-color="#8F41EE" stop-opacity="0" />
                        </radialGradient>
                        <radialGradient id="paint7_radial_14_41" cx="0" cy="0" r="1" gradientUnits="userSpaceOnUse"
                            gradientTransform="translate(43.3804 22.8634) rotate(65.6913) scale(41.3108 107.825)">
                            <stop stop-color="#9DD6FF" />
                            <stop offset="1" stop-color="#8F41EE" stop-opacity="0" />
                        </radialGradient>
                        <radialGradient id="paint8_radial_14_41" cx="0" cy="0" r="1" gradientUnits="userSpaceOnUse"
                            gradientTransform="translate(131.501 83.0389) rotate(140.041) scale(65.3477 93.3994)">
                            <stop stop-color="#5263FF" />
                            <stop offset="1" stop-color="#8F41EE" stop-opacity="0" />
                        </radialGradient>
                        <linearGradient id="paint9_linear_14_41" x1="64.6923" y1="93.109" x2="55.8401" y2="64.2201"
                            gradientUnits="userSpaceOnUse">
                            <stop stop-color="#9156F2" />
                            <stop offset="1" stop-color="#8B50F2" stop-opacity="0.06" />
                        </linearGradient>
                    </defs>
                </svg>