<svg width="21" height="24" viewBox="0 0 21 24" fill="none" xmlns="http://www.w3.org/2000/svg">
<g filter="url(#filter0_i_13_508)">
<path d="M21 10.4234C21 14.7903 17.2919 19.5143 13.7309 22.1705C12.7409 22.9089 11.7351 20.8468 10.5 20.8468C4.70101 20.8468 0 16.1801 0 10.4234C0 4.66672 4.70101 0 10.5 0C16.299 0 21 4.66672 21 10.4234Z" fill="url(#paint0_linear_13_508)"/>
<path d="M21 10.4234C21 14.7903 17.2919 19.5143 13.7309 22.1705C12.7409 22.9089 11.7351 20.8468 10.5 20.8468C4.70101 20.8468 0 16.1801 0 10.4234C0 4.66672 4.70101 0 10.5 0C16.299 0 21 4.66672 21 10.4234Z" fill="url(#paint1_radial_13_508)" fill-opacity="0.8"/>
<path d="M21 10.4234C21 14.7903 17.2919 19.5143 13.7309 22.1705C12.7409 22.9089 11.7351 20.8468 10.5 20.8468C4.70101 20.8468 0 16.1801 0 10.4234C0 4.66672 4.70101 0 10.5 0C16.299 0 21 4.66672 21 10.4234Z" fill="url(#paint2_radial_13_508)" fill-opacity="0.8"/>
<path d="M21 10.4234C21 14.7903 17.2919 19.5143 13.7309 22.1705C12.7409 22.9089 11.7351 20.8468 10.5 20.8468C4.70101 20.8468 0 16.1801 0 10.4234C0 4.66672 4.70101 0 10.5 0C16.299 0 21 4.66672 21 10.4234Z" fill="url(#paint3_radial_13_508)" fill-opacity="0.8"/>
<path d="M21 10.4234C21 14.7903 17.2919 19.5143 13.7309 22.1705C12.7409 22.9089 11.7351 20.8468 10.5 20.8468C4.70101 20.8468 0 16.1801 0 10.4234C0 4.66672 4.70101 0 10.5 0C16.299 0 21 4.66672 21 10.4234Z" fill="url(#paint4_linear_13_508)"/>
<path d="M21 10.4234C21 14.7903 17.2919 19.5143 13.7309 22.1705C12.7409 22.9089 11.7351 20.8468 10.5 20.8468C4.70101 20.8468 0 16.1801 0 10.4234C0 4.66672 4.70101 0 10.5 0C16.299 0 21 4.66672 21 10.4234Z" fill="url(#paint5_radial_13_508)" fill-opacity="0.8"/>
<path d="M21 10.4234C21 14.7903 17.2919 19.5143 13.7309 22.1705C12.7409 22.9089 11.7351 20.8468 10.5 20.8468C4.70101 20.8468 0 16.1801 0 10.4234C0 4.66672 4.70101 0 10.5 0C16.299 0 21 4.66672 21 10.4234Z" fill="url(#paint6_radial_13_508)" fill-opacity="0.8"/>
<path d="M21 10.4234C21 14.7903 17.2919 19.5143 13.7309 22.1705C12.7409 22.9089 11.7351 20.8468 10.5 20.8468C4.70101 20.8468 0 16.1801 0 10.4234C0 4.66672 4.70101 0 10.5 0C16.299 0 21 4.66672 21 10.4234Z" fill="url(#paint7_radial_13_508)" fill-opacity="0.8"/>
</g>
<path d="M8.77832 6.14844C8.8234 6.14843 8.86849 6.15726 8.91016 6.1748C8.95193 6.19245 8.99049 6.21837 9.02246 6.25098C9.05442 6.28358 9.07939 6.32264 9.09668 6.36523C9.11397 6.40783 9.12305 6.45389 9.12305 6.5V14.5762C9.12299 14.6691 9.08686 14.7584 9.02246 14.8242C8.9579 14.8901 8.86962 14.9268 8.77832 14.9268C8.68715 14.9267 8.59963 14.89 8.53516 14.8242C8.47069 14.7584 8.43463 14.6692 8.43457 14.5762V6.5C8.43456 6.45388 8.44364 6.40784 8.46094 6.36523C8.47824 6.32265 8.5032 6.28357 8.53516 6.25098C8.56704 6.21848 8.60486 6.19243 8.64648 6.1748C8.68814 6.15721 8.73323 6.14848 8.77832 6.14844ZM7.40137 7.73242C7.44654 7.73241 7.49146 7.74125 7.5332 7.75879C7.57497 7.77635 7.61354 7.80153 7.64551 7.83398C7.67747 7.86644 7.70243 7.90584 7.71973 7.94824C7.73686 7.99039 7.74604 8.03546 7.74609 8.08105V12.9941C7.74606 13.0867 7.70993 13.1757 7.64551 13.2412C7.58095 13.3068 7.49267 13.3438 7.40137 13.3438C7.31018 13.3437 7.2227 13.3067 7.1582 13.2412C7.09368 13.1757 7.05766 13.0868 7.05762 12.9941V8.08105C7.05767 8.03541 7.06682 7.99043 7.08398 7.94824C7.10128 7.90584 7.12623 7.86644 7.1582 7.83398C7.19004 7.80172 7.22799 7.77631 7.26953 7.75879C7.31122 7.74126 7.35625 7.73245 7.40137 7.73242ZM10.1553 7.73242C10.2004 7.73241 10.2454 7.7413 10.2871 7.75879C10.3288 7.77634 10.3675 7.80157 10.3994 7.83398C10.4314 7.86644 10.4563 7.90584 10.4736 7.94824C10.4908 7.99041 10.4999 8.03544 10.5 8.08105V12.9941C10.5 13.0867 10.4639 13.1757 10.3994 13.2412C10.3349 13.3068 10.2466 13.3438 10.1553 13.3438C10.0641 13.3436 9.97656 13.3066 9.91211 13.2412C9.84762 13.1757 9.81156 13.0868 9.81152 12.9941V8.08105C9.81158 8.03543 9.82074 7.99041 9.83789 7.94824C9.85519 7.90584 9.88014 7.86644 9.91211 7.83398C9.94406 7.80158 9.98269 7.77633 10.0244 7.75879C10.066 7.74137 10.1103 7.73248 10.1553 7.73242ZM12.9102 7.73242C12.9553 7.73246 13.0003 7.74127 13.042 7.75879C13.0835 7.77631 13.1215 7.80172 13.1533 7.83398C13.1853 7.86644 13.2102 7.90584 13.2275 7.94824C13.2447 7.99042 13.2539 8.03542 13.2539 8.08105V12.9941C13.2539 13.0868 13.2178 13.1757 13.1533 13.2412C13.0888 13.3067 13.0013 13.3437 12.9102 13.3438C12.8189 13.3438 12.7306 13.3068 12.666 13.2412C12.6016 13.1757 12.5655 13.0867 12.5654 12.9941V8.08105C12.5655 8.03546 12.5747 7.99039 12.5918 7.94824C12.6091 7.90584 12.634 7.86644 12.666 7.83398C12.698 7.80153 12.7366 7.77635 12.7783 7.75879C12.8201 7.74127 12.865 7.73241 12.9102 7.73242ZM6.02441 9.07422C6.06963 9.07421 6.11448 9.08404 6.15625 9.10156C6.19789 9.11904 6.23567 9.1445 6.26758 9.17676C6.29955 9.20915 6.32548 9.24772 6.34277 9.29004C6.36004 9.33233 6.36915 9.37806 6.36914 9.42383V11.6523C6.3691 11.6979 6.35994 11.743 6.34277 11.7852C6.32547 11.8275 6.29955 11.866 6.26758 11.8984C6.23563 11.9308 6.19798 11.9571 6.15625 11.9746C6.11453 11.9921 6.06956 12.001 6.02441 12.001C5.97926 12.001 5.93429 11.9921 5.89258 11.9746C5.85086 11.9571 5.81319 11.9308 5.78125 11.8984C5.74932 11.8661 5.72334 11.8274 5.70605 11.7852C5.68892 11.7431 5.6807 11.6979 5.68066 11.6523V9.42383C5.68066 9.3781 5.68882 9.3323 5.70605 9.29004C5.72335 9.24772 5.74928 9.20915 5.78125 9.17676C5.81311 9.14449 5.85098 9.11907 5.89258 9.10156C5.9343 9.08406 5.97926 9.07423 6.02441 9.07422ZM11.5332 9.07422C11.5782 9.07427 11.6225 9.08416 11.6641 9.10156C11.7058 9.11909 11.7444 9.14437 11.7764 9.17676C11.8083 9.20913 11.8333 9.24775 11.8506 9.29004C11.8679 9.33236 11.877 9.37802 11.877 9.42383V11.6523C11.8769 11.7447 11.8407 11.8331 11.7764 11.8984C11.7119 11.9638 11.6244 12.0009 11.5332 12.001C11.4419 12.001 11.3536 11.9639 11.2891 11.8984C11.2247 11.8331 11.1886 11.7446 11.1885 11.6523V9.42383C11.1885 9.37803 11.1976 9.33236 11.2148 9.29004C11.2321 9.24777 11.2572 9.20912 11.2891 9.17676C11.321 9.14437 11.3596 9.11909 11.4014 9.10156C11.4431 9.08408 11.488 9.07421 11.5332 9.07422ZM14.2871 9.07422C14.3322 9.07424 14.3772 9.08406 14.4189 9.10156C14.4605 9.11908 14.4984 9.14449 14.5303 9.17676C14.5622 9.20912 14.5872 9.24775 14.6045 9.29004C14.6218 9.33236 14.6309 9.37802 14.6309 9.42383V11.6523C14.6308 11.7447 14.5947 11.8331 14.5303 11.8984C14.4658 11.9638 14.3783 12.0009 14.2871 12.001C14.1958 12.001 14.1075 11.9639 14.043 11.8984C13.9787 11.8331 13.9425 11.7446 13.9424 11.6523V9.42383C13.9424 9.37805 13.9515 9.33234 13.9688 9.29004C13.986 9.24781 14.0111 9.2091 14.043 9.17676C14.0749 9.14437 14.1135 9.11909 14.1553 9.10156C14.197 9.08404 14.2419 9.07421 14.2871 9.07422Z" fill="#F9F8FD"/>
<path d="M8.77832 6.14844C8.8234 6.14843 8.86849 6.15726 8.91016 6.1748C8.95193 6.19245 8.99049 6.21837 9.02246 6.25098C9.05442 6.28358 9.07939 6.32264 9.09668 6.36523C9.11397 6.40783 9.12305 6.45389 9.12305 6.5V14.5762C9.12299 14.6691 9.08686 14.7584 9.02246 14.8242C8.9579 14.8901 8.86962 14.9268 8.77832 14.9268C8.68715 14.9267 8.59963 14.89 8.53516 14.8242C8.47069 14.7584 8.43463 14.6692 8.43457 14.5762V6.5C8.43456 6.45388 8.44364 6.40784 8.46094 6.36523C8.47824 6.32265 8.5032 6.28357 8.53516 6.25098C8.56704 6.21848 8.60486 6.19243 8.64648 6.1748C8.68814 6.15721 8.73323 6.14848 8.77832 6.14844ZM7.40137 7.73242C7.44654 7.73241 7.49146 7.74125 7.5332 7.75879C7.57497 7.77635 7.61354 7.80153 7.64551 7.83398C7.67747 7.86644 7.70243 7.90584 7.71973 7.94824C7.73686 7.99039 7.74604 8.03546 7.74609 8.08105V12.9941C7.74606 13.0867 7.70993 13.1757 7.64551 13.2412C7.58095 13.3068 7.49267 13.3438 7.40137 13.3438C7.31018 13.3437 7.2227 13.3067 7.1582 13.2412C7.09368 13.1757 7.05766 13.0868 7.05762 12.9941V8.08105C7.05767 8.03541 7.06682 7.99043 7.08398 7.94824C7.10128 7.90584 7.12623 7.86644 7.1582 7.83398C7.19004 7.80172 7.22799 7.77631 7.26953 7.75879C7.31122 7.74126 7.35625 7.73245 7.40137 7.73242ZM10.1553 7.73242C10.2004 7.73241 10.2454 7.7413 10.2871 7.75879C10.3288 7.77634 10.3675 7.80157 10.3994 7.83398C10.4314 7.86644 10.4563 7.90584 10.4736 7.94824C10.4908 7.99041 10.4999 8.03544 10.5 8.08105V12.9941C10.5 13.0867 10.4639 13.1757 10.3994 13.2412C10.3349 13.3068 10.2466 13.3438 10.1553 13.3438C10.0641 13.3436 9.97656 13.3066 9.91211 13.2412C9.84762 13.1757 9.81156 13.0868 9.81152 12.9941V8.08105C9.81158 8.03543 9.82074 7.99041 9.83789 7.94824C9.85519 7.90584 9.88014 7.86644 9.91211 7.83398C9.94406 7.80158 9.98269 7.77633 10.0244 7.75879C10.066 7.74137 10.1103 7.73248 10.1553 7.73242ZM12.9102 7.73242C12.9553 7.73246 13.0003 7.74127 13.042 7.75879C13.0835 7.77631 13.1215 7.80172 13.1533 7.83398C13.1853 7.86644 13.2102 7.90584 13.2275 7.94824C13.2447 7.99042 13.2539 8.03542 13.2539 8.08105V12.9941C13.2539 13.0868 13.2178 13.1757 13.1533 13.2412C13.0888 13.3067 13.0013 13.3437 12.9102 13.3438C12.8189 13.3438 12.7306 13.3068 12.666 13.2412C12.6016 13.1757 12.5655 13.0867 12.5654 12.9941V8.08105C12.5655 8.03546 12.5747 7.99039 12.5918 7.94824C12.6091 7.90584 12.634 7.86644 12.666 7.83398C12.698 7.80153 12.7366 7.77635 12.7783 7.75879C12.8201 7.74127 12.865 7.73241 12.9102 7.73242ZM6.02441 9.07422C6.06963 9.07421 6.11448 9.08404 6.15625 9.10156C6.19789 9.11904 6.23567 9.1445 6.26758 9.17676C6.29955 9.20915 6.32548 9.24772 6.34277 9.29004C6.36004 9.33233 6.36915 9.37806 6.36914 9.42383V11.6523C6.3691 11.6979 6.35994 11.743 6.34277 11.7852C6.32547 11.8275 6.29955 11.866 6.26758 11.8984C6.23563 11.9308 6.19798 11.9571 6.15625 11.9746C6.11453 11.9921 6.06956 12.001 6.02441 12.001C5.97926 12.001 5.93429 11.9921 5.89258 11.9746C5.85086 11.9571 5.81319 11.9308 5.78125 11.8984C5.74932 11.8661 5.72334 11.8274 5.70605 11.7852C5.68892 11.7431 5.6807 11.6979 5.68066 11.6523V9.42383C5.68066 9.3781 5.68882 9.3323 5.70605 9.29004C5.72335 9.24772 5.74928 9.20915 5.78125 9.17676C5.81311 9.14449 5.85098 9.11907 5.89258 9.10156C5.9343 9.08406 5.97926 9.07423 6.02441 9.07422ZM11.5332 9.07422C11.5782 9.07427 11.6225 9.08416 11.6641 9.10156C11.7058 9.11909 11.7444 9.14437 11.7764 9.17676C11.8083 9.20913 11.8333 9.24775 11.8506 9.29004C11.8679 9.33236 11.877 9.37802 11.877 9.42383V11.6523C11.8769 11.7447 11.8407 11.8331 11.7764 11.8984C11.7119 11.9638 11.6244 12.0009 11.5332 12.001C11.4419 12.001 11.3536 11.9639 11.2891 11.8984C11.2247 11.8331 11.1886 11.7446 11.1885 11.6523V9.42383C11.1885 9.37803 11.1976 9.33236 11.2148 9.29004C11.2321 9.24777 11.2572 9.20912 11.2891 9.17676C11.321 9.14437 11.3596 9.11909 11.4014 9.10156C11.4431 9.08408 11.488 9.07421 11.5332 9.07422ZM14.2871 9.07422C14.3322 9.07424 14.3772 9.08406 14.4189 9.10156C14.4605 9.11908 14.4984 9.14449 14.5303 9.17676C14.5622 9.20912 14.5872 9.24775 14.6045 9.29004C14.6218 9.33236 14.6309 9.37802 14.6309 9.42383V11.6523C14.6308 11.7447 14.5947 11.8331 14.5303 11.8984C14.4658 11.9638 14.3783 12.0009 14.2871 12.001C14.1958 12.001 14.1075 11.9639 14.043 11.8984C13.9787 11.8331 13.9425 11.7446 13.9424 11.6523V9.42383C13.9424 9.37805 13.9515 9.33234 13.9688 9.29004C13.986 9.24781 14.0111 9.2091 14.043 9.17676C14.0749 9.14437 14.1135 9.11909 14.1553 9.10156C14.197 9.08404 14.2419 9.07421 14.2871 9.07422Z" fill="url(#paint8_linear_13_508)"/>
<defs>
<filter id="filter0_i_13_508" x="-33.355" y="0" width="54.355" height="22.3302" filterUnits="userSpaceOnUse" color-interpolation-filters="sRGB">
<feFlood flood-opacity="0" result="BackgroundImageFix"/>
<feBlend mode="normal" in="SourceGraphic" in2="BackgroundImageFix" result="shape"/>
<feColorMatrix in="SourceAlpha" type="matrix" values="0 0 0 0 0 0 0 0 0 0 0 0 0 0 0 0 0 0 127 0" result="hardAlpha"/>
<feOffset dx="-33.355"/>
<feGaussianBlur stdDeviation="33.355"/>
<feComposite in2="hardAlpha" operator="arithmetic" k2="-1" k3="1"/>
<feColorMatrix type="matrix" values="0 0 0 0 0.80575 0 0 0 0 0.7375 0 0 0 0 1 0 0 0 0.3 0"/>
<feBlend mode="normal" in2="shape" result="effect1_innerShadow_13_508"/>
</filter>
<linearGradient id="paint0_linear_13_508" x1="21" y1="-2.52174" x2="-1.92634" y2="23.0999" gradientUnits="userSpaceOnUse">
<stop stop-color="#7041EE"/>
<stop offset="0.527788" stop-color="#8D41EE"/>
<stop offset="0.581731" stop-color="#9541EE"/>
<stop offset="1" stop-color="#D641EE"/>
</linearGradient>
<radialGradient id="paint1_radial_13_508" cx="0" cy="0" r="1" gradientUnits="userSpaceOnUse" gradientTransform="translate(5.69492 -5.21739) rotate(95.3934) scale(29.3473 42.9202)">
<stop stop-color="#52B6FF"/>
<stop offset="1" stop-color="#8F41EE" stop-opacity="0"/>
</radialGradient>
<radialGradient id="paint2_radial_13_508" cx="0" cy="0" r="1" gradientUnits="userSpaceOnUse" gradientTransform="translate(5.60593 1.3913) rotate(65.2349) scale(11.6832 30.9181)">
<stop stop-color="#9DD6FF"/>
<stop offset="1" stop-color="#8F41EE" stop-opacity="0"/>
</radialGradient>
<radialGradient id="paint3_radial_13_508" cx="0" cy="0" r="1" gradientUnits="userSpaceOnUse" gradientTransform="translate(30.9661 18.3478) rotate(140.635) scale(18.6455 26.5456)">
<stop stop-color="#5263FF"/>
<stop offset="1" stop-color="#8F41EE" stop-opacity="0"/>
</radialGradient>
<linearGradient id="paint4_linear_13_508" x1="21" y1="-2.52174" x2="-1.92634" y2="23.0999" gradientUnits="userSpaceOnUse">
<stop stop-color="#7041EE"/>
<stop offset="0.527788" stop-color="#8D41EE"/>
<stop offset="0.581731" stop-color="#9541EE"/>
<stop offset="1" stop-color="#D641EE"/>
</linearGradient>
<radialGradient id="paint5_radial_13_508" cx="0" cy="0" r="1" gradientUnits="userSpaceOnUse" gradientTransform="translate(5.69492 -5.21739) rotate(95.3934) scale(29.3473 42.9202)">
<stop stop-color="#52B6FF"/>
<stop offset="1" stop-color="#8F41EE" stop-opacity="0"/>
</radialGradient>
<radialGradient id="paint6_radial_13_508" cx="0" cy="0" r="1" gradientUnits="userSpaceOnUse" gradientTransform="translate(5.60593 1.3913) rotate(65.2349) scale(11.6832 30.9181)">
<stop stop-color="#9DD6FF"/>
<stop offset="1" stop-color="#8F41EE" stop-opacity="0"/>
</radialGradient>
<radialGradient id="paint7_radial_13_508" cx="0" cy="0" r="1" gradientUnits="userSpaceOnUse" gradientTransform="translate(30.9661 18.3478) rotate(140.635) scale(18.6455 26.5456)">
<stop stop-color="#5263FF"/>
<stop offset="1" stop-color="#8F41EE" stop-opacity="0"/>
</radialGradient>
<linearGradient id="paint8_linear_13_508" x1="11.7393" y1="21.1404" x2="9.19177" y2="12.8269" gradientUnits="userSpaceOnUse">
<stop stop-color="#9156F2"/>
<stop offset="1" stop-color="#8B50F2" stop-opacity="0.06"/>
</linearGradient>
</defs>
</svg>
